# xmcd
#
# Track frame offsets:
#	225
#	18053
#	29854
#	43678
#	59465
#	80644
#	101566
#	118474
#	137849
#	152568
#	164524
#	176234
#	198003
#	215475
#	233906
#	250113
#
# Disc length: 3513 seconds
#
# Revision: 3
# Processed by: cddbd v1.5.2PL0 Copyright (c) Steve Scherf et al.
# Submitted via: audiograbber 1.83.01
#
DISCID=e50db610
DTITLE=Various Artist Udramil Lovesongs ll - Udramil Lovesongs ll
DYEAR=1997
DGENRE=Pop
TTITLE0=Sayer, Leo - When I Need You
TTITLE1=Smokey - Have You Ever Sen The Rain
TTITLE2=Engelbert - Blu Bayou
TTITLE3=Tyler, Bonnie - It's A Heartache
TTITLE4=Rea, Chris - Candles
TTITLE5=Animals - House Of The Rising Sun
TTITLE6=Gaynor, Gloria - I Will Survive
TTITLE7=Essex, David - Bright Eyes
TTITLE8=Ocean, Billy - Love Really Hurts
TTITLE9=Rich, Charlie - The Most Beautifull Girl
TTITLE10=Sledge, Percy - Sittin' On The Dock
TTITLE11=Uriah Heep - Lady In Black
TTITLE12=Hot Chocolate - So You Win Again
TTITLE13=Lobo - I'd Love You To Want Me
TTITLE14=Bassey, Shirley - Something
TTITLE15=King, Ben E. - Stand By Me
EXTD=
EXTT0=
EXTT1=
EXTT2=
EXTT3=
EXTT4=
EXTT5=
EXTT6=
EXTT7=
EXTT8=
EXTT9=
EXTT10=
EXTT11=
EXTT12=
EXTT13=
EXTT14=
EXTT15=
PLAYORDER=
